<svg width="33" height="19" viewBox="0 0 33 19" fill="none" xmlns="http://www.w3.org/2000/svg">
<path d="M6.55206 9.33361L11.7462 4.41793C12.722 3.48457 12.7535 1.96009 11.8091 0.995616C10.6759 -0.186638 8.78711 -0.21775 7.59089 0.90228L1.01167 7.15578C0.980195 7.18689 0.980195 7.218 0.948716 7.218C0.917236 7.24911 0.854277 7.28023 0.822798 7.31134C-0.247505 8.33803 -0.278984 10.0492 0.759839 11.107L0.948716 11.2937L7.46497 17.9827C8.50379 19.0405 10.2352 19.0716 11.3055 18.045C12.3758 17.0183 12.4072 15.3071 11.3684 14.2493L6.55206 9.33361Z" fill="#00A9AD"/>
<path d="M21.2843 0.124671L21.788 0.280231C23.0787 0.684686 23.8027 2.0225 23.4249 3.29809L19.2382 16.8318C18.766 18.3874 17.0976 19.2585 15.5236 18.7918C14.2329 18.3874 13.5089 17.0496 13.8866 15.774L18.1993 1.7736C18.6086 0.466903 19.9937 -0.279784 21.2843 0.124671Z" fill="#00A9AD"/>
<path d="M28.9025 0C28.8711 0 28.8711 0 28.8396 0H24.0547C24.2436 0 24.8417 0.15556 25.3139 0.933358C25.6601 1.64893 25.5657 2.48896 25.5342 2.55118C25.5342 2.58229 25.5342 2.58229 25.5342 2.58229C25.4713 2.83119 25.4398 3.11119 25.4398 3.3912C25.4398 5.25792 26.9823 6.7824 28.8711 6.7824C30.7598 6.7824 32.3023 5.25792 32.3023 3.3912C32.3023 1.52448 30.7913 0 28.9025 0Z" fill="#FDC039"/>
</svg>
